<svg width="50" height="50" viewBox="0 0 50 50" fill="none" xmlns="http://www.w3.org/2000/svg">
<g clip-path="url(#clip0_1861_17)">
<path d="M25 0C20.0555 0 15.222 1.46622 11.1108 4.21326C6.99953 6.9603 3.79521 10.8648 1.90302 15.4329C0.0108322 20.0011 -0.484251 25.0277 0.480379 29.8773C1.44501 34.7268 3.82603 39.1814 7.32234 42.6777C10.8187 46.174 15.2732 48.555 20.1228 49.5196C24.9723 50.4843 29.9989 49.9892 34.5671 48.097C39.1353 46.2048 43.0397 43.0005 45.7867 38.8893C48.5338 34.778 50 29.9445 50 25C49.9928 18.3718 47.3566 12.0171 42.6698 7.33025C37.9829 2.64339 31.6282 0.00716892 25 0V0ZM25 43.75C21.2916 43.75 17.6665 42.6503 14.5831 40.5901C11.4996 38.5298 9.09641 35.6014 7.67727 32.1753C6.25813 28.7492 5.88681 24.9792 6.61029 21.3421C7.33376 17.7049 9.11952 14.364 11.7418 11.7417C14.364 9.11951 17.7049 7.33375 21.3421 6.61028C24.9792 5.8868 28.7492 6.25812 32.1753 7.67726C35.6014 9.0964 38.5298 11.4996 40.5901 14.5831C42.6503 17.6665 43.75 21.2916 43.75 25C43.7445 29.9711 41.7673 34.7371 38.2522 38.2522C34.7371 41.7673 29.9711 43.7445 25 43.75ZM35.4167 25C35.4167 25.8288 35.0874 26.6237 34.5014 27.2097C33.9153 27.7958 33.1205 28.125 32.2917 28.125H28.125V32.2917C28.125 33.1205 27.7958 33.9153 27.2097 34.5014C26.6237 35.0874 25.8288 35.4167 25 35.4167C24.1712 35.4167 23.3764 35.0874 22.7903 34.5014C22.2043 33.9153 21.875 33.1205 21.875 32.2917V28.125H17.7083C16.8795 28.125 16.0847 27.7958 15.4986 27.2097C14.9126 26.6237 14.5833 25.8288 14.5833 25C14.5833 24.1712 14.9126 23.3763 15.4986 22.7903C16.0847 22.2042 16.8795 21.875 17.7083 21.875H21.875V17.7083C21.875 16.8795 22.2043 16.0847 22.7903 15.4986C23.3764 14.9126 24.1712 14.5833 25 14.5833C25.8288 14.5833 26.6237 14.9126 27.2097 15.4986C27.7958 16.0847 28.125 16.8795 28.125 17.7083V21.875H32.2917C33.1205 21.875 33.9153 22.2042 34.5014 22.7903C35.0874 23.3763 35.4167 24.1712 35.4167 25Z" fill="#17202A" fill-opacity="0.5"/>
</g>
<defs>
<clipPath id="clip0_1861_17">
<rect width="50" height="50" fill="white"/>
</clipPath>
</defs>
</svg>
