<svg width="45" height="45" viewBox="0 0 45 45" fill="none" xmlns="http://www.w3.org/2000/svg">
<g clip-path="url(#clip0_2303_109)">
<path d="M22.5 0C18.0499 0 13.6998 1.3196 9.99968 3.79193C6.29957 6.26427 3.41569 9.77829 1.71272 13.8896C0.00974893 18.001 -0.435826 22.525 0.432341 26.8895C1.30051 31.2541 3.44343 35.2632 6.59011 38.4099C9.73679 41.5566 13.7459 43.6995 18.1105 44.5677C22.475 45.4358 26.999 44.9903 31.1104 43.2873C35.2217 41.5843 38.7357 38.7004 41.2081 35.0003C43.6804 31.3002 45 26.9501 45 22.5C44.9936 16.5346 42.621 10.8154 38.4028 6.59722C34.1846 2.37905 28.4654 0.00645203 22.5 0V0ZM22.5 39.375C19.1625 39.375 15.8998 38.3853 13.1248 36.5311C10.3497 34.6768 8.18677 32.0413 6.90954 28.9578C5.63231 25.8743 5.29813 22.4813 5.94926 19.2079C6.60038 15.9344 8.20757 12.9276 10.5676 10.5676C12.9276 8.20756 15.9344 6.60037 19.2079 5.94925C22.4813 5.29812 25.8743 5.6323 28.9578 6.90953C32.0413 8.18676 34.6768 10.3497 36.5311 13.1248C38.3853 15.8998 39.375 19.1624 39.375 22.5C39.37 26.974 37.5906 31.2633 34.427 34.4269C31.2634 37.5905 26.974 39.37 22.5 39.375ZM31.875 22.5C31.875 23.2459 31.5787 23.9613 31.0512 24.4887C30.5238 25.0162 29.8084 25.3125 29.0625 25.3125H25.3125V29.0625C25.3125 29.8084 25.0162 30.5238 24.4887 31.0512C23.9613 31.5787 23.2459 31.875 22.5 31.875C21.7541 31.875 21.0387 31.5787 20.5113 31.0512C19.9838 30.5238 19.6875 29.8084 19.6875 29.0625V25.3125H15.9375C15.1916 25.3125 14.4762 25.0162 13.9488 24.4887C13.4213 23.9613 13.125 23.2459 13.125 22.5C13.125 21.7541 13.4213 21.0387 13.9488 20.5113C14.4762 19.9838 15.1916 19.6875 15.9375 19.6875H19.6875V15.9375C19.6875 15.1916 19.9838 14.4762 20.5113 13.9488C21.0387 13.4213 21.7541 13.125 22.5 13.125C23.2459 13.125 23.9613 13.4213 24.4887 13.9488C25.0162 14.4762 25.3125 15.1916 25.3125 15.9375V19.6875H29.0625C29.8084 19.6875 30.5238 19.9838 31.0512 20.5113C31.5787 21.0387 31.875 21.7541 31.875 22.5Z" fill="#17202A"/>
</g>
<defs>
<clipPath id="clip0_2303_109">
<rect width="45" height="45" fill="white"/>
</clipPath>
</defs>
</svg>
