<svg width="40" height="40" viewBox="0 0 40 40" fill="none" xmlns="http://www.w3.org/2000/svg">
<g clip-path="url(#clip0_942_103)">
<path d="M38.3334 18.333H35V14.9996C35 14.0792 34.2539 13.333 33.3334 13.333C32.4129 13.333 31.6667 14.0792 31.6667 14.9996V18.333H28.3334C27.4129 18.333 26.6667 19.0792 26.6667 19.9996C26.6667 20.9201 27.4129 21.6663 28.3334 21.6663H31.6667V24.9996C31.6667 25.9201 32.4129 26.6663 33.3334 26.6663C34.2539 26.6663 35 25.9201 35 24.9996V21.6663H38.3334C39.2539 21.6663 40 20.9201 40 19.9996C40 19.0792 39.2539 18.333 38.3334 18.333Z" fill="#483D8B"/>
<path d="M15 20C20.5228 20 25 15.5228 25 10C25 4.47715 20.5228 0 15 0C9.47715 0 5 4.47715 5 10C5 15.5228 9.47715 20 15 20Z" fill="#17202A"/>
<path d="M15 23.333C6.71953 23.3422 0.00921875 30.0525 0 38.333C0 39.2535 0.746172 39.9996 1.66664 39.9996H28.3333C29.2537 39.9996 29.9999 39.2535 29.9999 38.333C29.9908 30.0525 23.2805 23.3421 15 23.333Z" fill="#17202A"/>
</g>
<defs>
<clipPath id="clip0_942_103">
<rect width="40" height="40" fill="white"/>
</clipPath>
</defs>
</svg>
