<?xml version="1.0"?>
<svg xmlns="http://www.w3.org/2000/svg" xmlns:xlink="http://www.w3.org/1999/xlink" xmlns:svgjs="http://svgjs.com/svgjs" version="1.1" width="512" height="512" x="0" y="0" viewBox="0 0 24 24" style="enable-background:new 0 0 512 512" xml:space="preserve"><g><path xmlns="http://www.w3.org/2000/svg" d="M13.1,19a1,1,0,0,1-.7-1.71L17,12.71a1,1,0,0,0,0-1.42L12.4,6.71a1,1,0,0,1,0-1.42,1,1,0,0,1,1.41,0L18.4,9.88a3,3,0,0,1,0,4.24l-4.59,4.59A1,1,0,0,1,13.1,19Z" fill="#17202a" data-original="#000000"/><path xmlns="http://www.w3.org/2000/svg" d="M6.1,19a1,1,0,0,1-.7-1.71L10.69,12,5.4,6.71a1,1,0,0,1,0-1.42,1,1,0,0,1,1.41,0l6,6a1,1,0,0,1,0,1.42l-6,6A1,1,0,0,1,6.1,19Z" fill="#17202a" data-original="#000000"/></g></svg>
