<svg width="50" height="50" viewBox="0 0 50 50" fill="none" xmlns="http://www.w3.org/2000/svg">
<path d="M27.2915 40.6253C26.6732 40.6255 26.0687 40.4424 25.5546 40.0991C25.0404 39.7557 24.6396 39.2675 24.403 38.6963C24.1664 38.1251 24.1045 37.4966 24.2252 36.8902C24.3459 36.2838 24.6437 35.7269 25.081 35.2898L34.6352 25.7378C34.7322 25.641 34.8092 25.5261 34.8617 25.3995C34.9142 25.2729 34.9412 25.1373 34.9412 25.0003C34.9412 24.8632 34.9142 24.7276 34.8617 24.601C34.8092 24.4745 34.7322 24.3595 34.6352 24.2628L25.0894 14.7107C24.5031 14.1247 24.1737 13.3299 24.1735 12.501C24.1733 11.6721 24.5024 10.8771 25.0883 10.2909C25.6743 9.70465 26.4691 9.3752 27.298 9.375C28.1269 9.3748 28.9219 9.70389 29.5081 10.2898L39.0623 19.844C40.4274 21.2128 41.1939 23.0671 41.1939 25.0003C41.1939 26.9334 40.4274 28.7877 39.0623 30.1565L29.5081 39.7107C29.2171 40.0016 28.8714 40.2321 28.491 40.389C28.1106 40.546 27.703 40.6263 27.2915 40.6253Z" fill="#483D8B" fill-opacity="0.6"/>
<path d="M12.7084 40.6253C12.0902 40.6255 11.4857 40.4424 10.9716 40.0991C10.4574 39.7557 10.0566 39.2675 9.81999 38.6963C9.58335 38.1251 9.52146 37.4966 9.64216 36.8902C9.76285 36.2838 10.0607 35.7269 10.498 35.2898L20.7959 25.0003L10.5064 14.7107C9.92013 14.1247 9.59067 13.3299 9.59048 12.501C9.59028 11.6721 9.91936 10.8771 10.5053 10.2909C11.0913 9.70465 11.8861 9.3752 12.715 9.375C13.5439 9.3748 14.3389 9.70389 14.9251 10.2898L27.4251 22.7898C27.7155 23.0801 27.9459 23.4246 28.103 23.8039C28.2602 24.1832 28.3411 24.5897 28.3411 25.0003C28.3411 25.4108 28.2602 25.8173 28.103 26.1966C27.9459 26.5759 27.7155 26.9205 27.4251 27.2107L14.9251 39.7107C14.634 40.0016 14.2884 40.2321 13.908 40.389C13.5276 40.546 13.12 40.6263 12.7084 40.6253Z" fill="#483D8B" fill-opacity="0.8"/>
</svg>
