<svg width="23" height="23" viewBox="0 0 23 23" fill="none" xmlns="http://www.w3.org/2000/svg">
<g clip-path="url(#clip0_2353_2)">
<path d="M22.5793 20.5517L18.1277 16.0982C21.4586 11.6469 20.5504 5.33824 16.0992 2.00734C11.6479 -1.32356 5.33922 -0.41533 2.00832 4.03591C-1.32258 8.48715 -0.414353 14.7959 4.03689 18.1268C7.61249 20.8024 12.5235 20.8024 16.0992 18.1268L20.5526 22.5802C21.1123 23.1399 22.0197 23.1399 22.5793 22.5802C23.1389 22.0206 23.1389 21.1132 22.5793 20.5536L22.5793 20.5517ZM10.1051 17.2672C6.14909 17.2672 2.94211 14.0602 2.94211 10.1042C2.94211 6.14811 6.14909 2.94113 10.1051 2.94113C14.0612 2.94113 17.2682 6.14811 17.2682 10.1042C17.264 14.0584 14.0594 17.263 10.1051 17.2672Z" fill="#17202A" fill-opacity="0.5"/>
</g>
<defs>
<clipPath id="clip0_2353_2">
<rect width="23" height="23" fill="white"/>
</clipPath>
</defs>
</svg>
