<svg width="60" height="56" viewBox="0 0 60 56" fill="none" xmlns="http://www.w3.org/2000/svg">
<path d="M47.4999 19.656V16.3333C47.4999 7.3127 39.665 0 30 0C20.3349 0 12.5 7.3127 12.5 16.3333V19.656C7.95008 21.5094 5.00656 25.7 5 30.3333V44.3333C5.0082 50.7734 10.5998 55.9923 17.4999 56H42.4999C49.4 55.9923 54.9916 50.7734 54.9999 44.3333V30.3333C54.9935 25.7 52.0498 21.5094 47.4999 19.656ZM32.4999 39.6667C32.4999 40.9554 31.3807 42 30 42C28.6193 42 27.5 40.9554 27.5 39.6667V35C27.5 33.7113 28.6193 32.6667 30 32.6667C31.3807 32.6667 32.4999 33.7113 32.4999 35V39.6667ZM42.5 18.6667H17.4999V16.3334C17.4999 9.89013 23.0963 4.6667 30 4.6667C36.9036 4.6667 42.5 9.89002 42.5 16.3334V18.6667Z" fill="#17202A" fill-opacity="0.5"/>
</svg>
