<svg width="45" height="44" viewBox="0 0 45 44" fill="none" xmlns="http://www.w3.org/2000/svg">
<path d="M45 41.3968C45 41.8711 44.8025 42.3259 44.4508 42.6613C44.0992 42.9967 43.6223 43.1851 43.125 43.1851H1.875C1.37772 43.1851 0.900806 42.9967 0.549175 42.6613C0.197544 42.3259 0 41.8711 0 41.3968C0 40.9225 0.197544 40.4676 0.549175 40.1322C0.900806 39.7968 1.37772 39.6084 1.875 39.6084H43.125C43.6223 39.6084 44.0992 39.7968 44.4508 40.1322C44.8025 40.4676 45 40.9225 45 41.3968ZM7.03125 27.0901C9.03375 27.0901 10.3125 25.9152 10.3125 25.3018C10.3125 24.8275 10.51 24.3726 10.8617 24.0373C11.2133 23.7019 11.6902 23.5135 12.1875 23.5135C12.6848 23.5135 13.1617 23.7019 13.5133 24.0373C13.865 24.3726 14.0625 24.8275 14.0625 25.3018C14.0625 25.849 15.3019 27.0901 17.3438 27.0901C19.3463 27.0901 20.625 25.9152 20.625 25.3018C20.625 24.8275 20.8225 24.3726 21.1742 24.0373C21.5258 23.7019 22.0027 23.5135 22.5 23.5135C22.9973 23.5135 23.4742 23.7019 23.8258 24.0373C24.1775 24.3726 24.375 24.8275 24.375 25.3018C24.375 25.849 25.6144 27.0901 27.6562 27.0901C29.6588 27.0901 30.9375 25.9152 30.9375 25.3018C30.9375 24.8275 31.135 24.3726 31.4867 24.0373C31.8383 23.7019 32.3152 23.5135 32.8125 23.5135C33.3098 23.5135 33.7867 23.7019 34.1383 24.0373C34.49 24.3726 34.6875 24.8275 34.6875 25.3018C34.6875 25.849 35.9269 27.0901 37.9688 27.0901C40.0106 27.0901 41.25 25.849 41.25 25.3018C41.247 22.9312 40.2583 20.6585 38.5008 18.9822C36.7433 17.306 34.3605 16.363 31.875 16.3602H24.375V12.4544C25.468 12.0859 26.4148 11.4043 27.0861 10.5028C27.7573 9.6014 28.1202 8.52417 28.125 7.41851C27.7224 5.14018 26.6361 3.02198 24.9975 1.32031C24.6731 1.00173 24.2851 0.748473 23.8562 0.57553C23.4274 0.402587 22.9665 0.313477 22.5009 0.313477C22.0353 0.313477 21.5745 0.402587 21.1457 0.57553C20.7168 0.748473 20.3287 1.00173 20.0044 1.32031C18.3645 3.02135 17.2774 5.13976 16.875 7.41851C16.8798 8.52417 17.2427 9.6014 17.9139 10.5028C18.5852 11.4043 19.532 12.0859 20.625 12.4544V16.3602H13.125C10.6395 16.363 8.25667 17.306 6.49916 18.9822C4.74165 20.6585 3.75298 22.9312 3.75 25.3018C3.75 25.849 4.98938 27.0901 7.03125 27.0901ZM5.625 36.0318H39.375C39.8723 36.0318 40.3492 35.8434 40.7008 35.508C41.0525 35.1726 41.25 34.7177 41.25 34.2435V29.9962C40.2167 30.4338 39.0994 30.6621 37.9688 30.6668C36.0806 30.6804 34.2504 30.0457 32.8125 28.8785C31.3662 30.0284 29.5442 30.6603 27.6613 30.6652C25.7784 30.6701 23.9529 30.0476 22.5 28.9053C21.0471 30.0476 19.2216 30.6701 17.3387 30.6652C15.4558 30.6603 13.6338 30.0284 12.1875 28.8785C10.7496 30.0457 8.91936 30.6804 7.03125 30.6668C5.90064 30.6621 4.78334 30.4338 3.75 29.9962V34.2435C3.75 34.7177 3.94754 35.1726 4.29917 35.508C4.65081 35.8434 5.12772 36.0318 5.625 36.0318Z" fill="#17202A" fill-opacity="0.5"/>
</svg>
