<svg width="38" height="21" viewBox="0 0 38 21" fill="none" xmlns="http://www.w3.org/2000/svg">
<path d="M36.5621 1.44939C36.3142 1.18909 36.0193 0.982495 35.6943 0.841506C35.3694 0.700517 35.0208 0.62793 34.6688 0.62793C34.3167 0.62793 33.9682 0.700517 33.6432 0.841506C33.3183 0.982495 33.0233 1.18909 32.7755 1.44939L20.5621 14.1684C20.3142 14.4287 20.0193 14.6353 19.6943 14.7763C19.3694 14.9173 19.0208 14.9899 18.6688 14.9899C18.3167 14.9899 17.9682 14.9173 17.6432 14.7763C17.3183 14.6353 17.0233 14.4287 16.7754 14.1684L4.56211 1.44939C4.31421 1.18909 4.01928 0.982495 3.69432 0.841506C3.36936 0.700517 3.02081 0.62793 2.66878 0.62793C2.31675 0.62793 1.9682 0.700517 1.64324 0.841506C1.31828 0.982495 1.02335 1.18909 0.775447 1.44939C0.278777 1.96971 0 2.67356 0 3.40723C0 4.14089 0.278777 4.84475 0.775447 5.36507L13.0154 18.1119C14.5155 19.672 16.5488 20.5484 18.6688 20.5484C20.7888 20.5484 22.8221 19.672 24.3221 18.1119L36.5621 5.36507C37.0588 4.84475 37.3376 4.14089 37.3376 3.40723C37.3376 2.67356 37.0588 1.96971 36.5621 1.44939Z" fill="#17202A" fill-opacity="0.5"/>
</svg>
