<svg width="26" height="30" viewBox="0 0 26 30" fill="none" xmlns="http://www.w3.org/2000/svg">
<path d="M21.75 3.25875V1.875C21.75 1.37772 21.5525 0.900805 21.2008 0.549175C20.8492 0.197544 20.3723 0 19.875 0C19.3777 0 18.9008 0.197544 18.5492 0.549175C18.1975 0.900805 18 1.37772 18 1.875V2.5H14.875V1.875C14.875 1.37772 14.6775 0.900805 14.3258 0.549175C13.9742 0.197544 13.4973 0 13 0C12.5027 0 12.0258 0.197544 11.6742 0.549175C11.3225 0.900805 11.125 1.37772 11.125 1.875V2.5H8V1.875C8 1.37772 7.80246 0.900805 7.45083 0.549175C7.0992 0.197544 6.62228 0 6.125 0C5.62772 0 5.15081 0.197544 4.79917 0.549175C4.44754 0.900805 4.25 1.37772 4.25 1.875V3.25875C3.12243 3.83416 2.17562 4.70973 1.51393 5.78894C0.852245 6.86814 0.501377 8.10909 0.5 9.375V23.125C0.501985 24.9478 1.22695 26.6953 2.51583 27.9842C3.80472 29.273 5.55225 29.998 7.375 30H18.625C20.4477 29.9977 22.195 29.2726 23.4838 27.9838C24.7726 26.695 25.4977 24.9477 25.5 23.125V9.375C25.4986 8.10909 25.1478 6.86814 24.4861 5.78894C23.8244 4.70973 22.8776 3.83416 21.75 3.25875ZM21.75 23.125C21.75 23.9538 21.4208 24.7487 20.8347 25.3347C20.2487 25.9208 19.4538 26.25 18.625 26.25H7.375C6.5462 26.25 5.75134 25.9208 5.16529 25.3347C4.57924 24.7487 4.25 23.9538 4.25 23.125V9.375C4.25 8.5462 4.57924 7.75134 5.16529 7.16529C5.75134 6.57924 6.5462 6.25 7.375 6.25H18.625C19.4538 6.25 20.2487 6.57924 20.8347 7.16529C21.4208 7.75134 21.75 8.5462 21.75 9.375V23.125ZM19.25 10.625C19.25 11.1223 19.0525 11.5992 18.7008 11.9508C18.3492 12.3025 17.8723 12.5 17.375 12.5H8.625C8.12772 12.5 7.65081 12.3025 7.29918 11.9508C6.94754 11.5992 6.75 11.1223 6.75 10.625C6.75 10.1277 6.94754 9.65081 7.29918 9.29917C7.65081 8.94754 8.12772 8.75 8.625 8.75H17.375C17.8723 8.75 18.3492 8.94754 18.7008 9.29917C19.0525 9.65081 19.25 10.1277 19.25 10.625ZM14.875 16.875C14.875 17.3723 14.6775 17.8492 14.3258 18.2008C13.9742 18.5525 13.4973 18.75 13 18.75H8.625C8.12772 18.75 7.65081 18.5525 7.29918 18.2008C6.94754 17.8492 6.75 17.3723 6.75 16.875C6.75 16.3777 6.94754 15.9008 7.29918 15.5492C7.65081 15.1975 8.12772 15 8.625 15H13C13.4973 15 13.9742 15.1975 14.3258 15.5492C14.6775 15.9008 14.875 16.3777 14.875 16.875Z" fill="#17202A" fill-opacity="0.8"/>
</svg>
