<svg width="60" height="60" viewBox="0 0 60 60" fill="none" xmlns="http://www.w3.org/2000/svg">
<g clip-path="url(#clip0_2640_14)">
<path d="M42.5 35.0001C42.5 35.6631 42.2366 36.299 41.7678 36.7678C41.2989 37.2367 40.663 37.5001 40 37.5001H20C19.337 37.5001 18.7011 37.2367 18.2322 36.7678C17.7634 36.299 17.5 35.6631 17.5 35.0001C17.5 34.337 17.7634 33.7011 18.2322 33.2323C18.7011 32.7634 19.337 32.5001 20 32.5001H40C40.663 32.5001 41.2989 32.7634 41.7678 33.2323C42.2366 33.7011 42.5 34.337 42.5 35.0001ZM32.5 42.5001H20C19.337 42.5001 18.7011 42.7634 18.2322 43.2323C17.7634 43.7011 17.5 44.337 17.5 45.0001C17.5 45.6631 17.7634 46.299 18.2322 46.7678C18.7011 47.2367 19.337 47.5001 20 47.5001H32.5C33.163 47.5001 33.7989 47.2367 34.2678 46.7678C34.7366 46.299 35 45.6631 35 45.0001C35 44.337 34.7366 43.7011 34.2678 43.2323C33.7989 42.7634 33.163 42.5001 32.5 42.5001ZM55 26.2126V47.5001C54.996 50.814 53.6778 53.9912 51.3345 56.3345C48.9911 58.6778 45.814 59.9961 42.5 60H17.5C14.186 59.9961 11.0089 58.6778 8.66555 56.3345C6.3222 53.9912 5.00397 50.814 5 47.5001V12.5001C5.00397 9.18607 6.3222 6.00895 8.66555 3.66561C11.0089 1.32226 14.186 0.00402727 17.5 5.76217e-05H28.7875C31.0865 -0.00585969 33.364 0.444027 35.4881 1.32371C37.6122 2.20338 39.5408 3.4954 41.1625 5.12506L49.8725 13.8401C51.5031 15.4607 52.7959 17.3887 53.6761 19.5125C54.5562 21.6363 55.0062 23.9136 55 26.2126ZM37.6275 8.66006C36.8407 7.89796 35.9573 7.24237 35 6.71006V17.5001C35 18.1631 35.2634 18.799 35.7322 19.2678C36.2011 19.7367 36.837 20.0001 37.5 20.0001H48.29C47.7574 19.043 47.1009 18.1604 46.3375 17.3751L37.6275 8.66006ZM50 26.2126C50 25.8001 49.92 25.4051 49.8825 25.0001H37.5C35.5109 25.0001 33.6032 24.2099 32.1967 22.8034C30.7902 21.3968 30 19.4892 30 17.5001V5.11756C29.595 5.08006 29.1975 5.00006 28.7875 5.00006H17.5C15.5109 5.00006 13.6032 5.79023 12.1967 7.19676C10.7902 8.60328 10 10.5109 10 12.5001V47.5001C10 49.4892 10.7902 51.3968 12.1967 52.8034C13.6032 54.2099 15.5109 55.0001 17.5 55.0001H42.5C44.4891 55.0001 46.3968 54.2099 47.8033 52.8034C49.2098 51.3968 50 49.4892 50 47.5001V26.2126Z" fill="#17202A" fill-opacity="0.5"/>
</g>
<defs>
<clipPath id="clip0_2640_14">
<rect width="60" height="60" fill="white"/>
</clipPath>
</defs>
</svg>
