<svg width="30" height="30" viewBox="0 0 30 30" fill="none" xmlns="http://www.w3.org/2000/svg">
<g opacity="0.8" clip-path="url(#clip0_975_148)">
<path d="M30 11.875C30.003 11.0914 29.7954 10.3213 29.399 9.64532C29.0026 8.96934 28.4319 8.41223 27.7466 8.03222C27.0612 7.65222 26.2864 7.46327 25.503 7.48512C24.7197 7.50697 23.9566 7.73882 23.2935 8.15643C22.6304 8.57405 22.0917 9.1621 21.7336 9.85914C21.3755 10.5562 21.2111 11.3366 21.2578 12.1188C21.3044 12.9011 21.5603 13.6565 21.9987 14.306C22.4372 14.9555 23.042 15.4754 23.75 15.8113V20C23.75 21.6576 23.0915 23.2473 21.9194 24.4194C20.7473 25.5915 19.1576 26.25 17.5 26.25C15.8424 26.25 14.2527 25.5915 13.0806 24.4194C11.9085 23.2473 11.25 21.6576 11.25 20V19.8113C13.3659 19.3762 15.2672 18.225 16.6334 16.5517C17.9996 14.8784 18.7471 12.7852 18.75 10.625V6.875C18.748 5.05225 18.023 3.30472 16.7342 2.01583C15.4453 0.726951 13.6978 0.00198521 11.875 0C11.3777 0 10.9008 0.197544 10.5492 0.549175C10.1975 0.900805 10 1.37772 10 1.875C10 2.37228 10.1975 2.84919 10.5492 3.20083C10.9008 3.55246 11.3777 3.75 11.875 3.75C12.2854 3.75 12.6917 3.83083 13.0709 3.98788C13.45 4.14492 13.7945 4.37511 14.0847 4.66529C14.3749 4.95547 14.6051 5.29997 14.7621 5.67911C14.9192 6.05826 15 6.46462 15 6.875V10.625C15 12.1168 14.4074 13.5476 13.3525 14.6025C12.2976 15.6574 10.8668 16.25 9.375 16.25C7.88316 16.25 6.45242 15.6574 5.39752 14.6025C4.34263 13.5476 3.75 12.1168 3.75 10.625V6.875C3.75 6.0462 4.07924 5.25134 4.66529 4.66529C5.25134 4.07924 6.0462 3.75 6.875 3.75C7.37228 3.75 7.84919 3.55246 8.20083 3.20083C8.55246 2.84919 8.75 2.37228 8.75 1.875C8.75 1.37772 8.55246 0.900805 8.20083 0.549175C7.84919 0.197544 7.37228 0 6.875 0C5.05225 0.00198521 3.30472 0.726951 2.01583 2.01583C0.726951 3.30472 0.00198521 5.05225 0 6.875L0 10.625C0.00289755 12.7852 0.750427 14.8784 2.1166 16.5517C3.48277 18.225 5.38405 19.3762 7.5 19.8113V20C7.5 22.6522 8.55357 25.1957 10.4289 27.0711C12.3043 28.9464 14.8478 30 17.5 30C20.1522 30 22.6957 28.9464 24.5711 27.0711C26.4464 25.1957 27.5 22.6522 27.5 20V15.8113C28.2455 15.4576 28.8758 14.9004 29.3181 14.204C29.7605 13.5075 29.9969 12.7001 30 11.875Z" fill="#17202A" fill-opacity="0.8"/>
</g>
<defs>
<clipPath id="clip0_975_148">
<rect width="30" height="30" fill="white"/>
</clipPath>
</defs>
</svg>
