<svg width="35" height="35" viewBox="0 0 35 35" fill="none" xmlns="http://www.w3.org/2000/svg">
<g clip-path="url(#clip0_1279_6)">
<path d="M33.9368 13.7362C31.6749 10.0525 26.5299 3.87207 17.4999 3.87207C8.46989 3.87207 3.32489 10.0525 1.06302 13.7362C0.363787 14.8672 -0.0065918 16.1705 -0.0065918 17.5002C-0.0065918 18.8298 0.363787 20.1332 1.06302 21.2642C3.32489 24.9479 8.46989 31.1283 17.4999 31.1283C26.5299 31.1283 31.6749 24.9479 33.9368 21.2642C34.636 20.1332 35.0064 18.8298 35.0064 17.5002C35.0064 16.1705 34.636 14.8672 33.9368 13.7362V13.7362ZM31.4503 19.7373C29.5078 22.896 25.1109 28.2117 17.4999 28.2117C9.88885 28.2117 5.49197 22.896 3.54947 19.7373C3.13405 19.0651 2.91401 18.2904 2.91401 17.5002C2.91401 16.71 3.13405 15.9353 3.54947 15.2631C5.49197 12.1044 9.88885 6.78874 17.4999 6.78874C25.1109 6.78874 29.5078 12.0985 31.4503 15.2631C31.8657 15.9353 32.0858 16.71 32.0858 17.5002C32.0858 18.2904 31.8657 19.0651 31.4503 19.7373V19.7373Z" fill="#17202A" fill-opacity="0.6"/>
<path d="M17.4999 10.209C16.0578 10.209 14.648 10.6366 13.4489 11.4379C12.2498 12.2391 11.3152 13.3779 10.7633 14.7103C10.2114 16.0426 10.067 17.5087 10.3484 18.9232C10.6297 20.3376 11.3242 21.6369 12.3439 22.6566C13.3637 23.6764 14.6629 24.3709 16.0774 24.6522C17.4918 24.9336 18.9579 24.7892 20.2903 24.2373C21.6227 23.6854 22.7615 22.7508 23.5627 21.5517C24.3639 20.3526 24.7916 18.9428 24.7916 17.5007C24.7893 15.5675 24.0203 13.7142 22.6534 12.3472C21.2864 10.9803 19.4331 10.2113 17.4999 10.209V10.209ZM17.4999 21.8757C16.6346 21.8757 15.7888 21.6191 15.0693 21.1383C14.3498 20.6576 13.7891 19.9743 13.4579 19.1749C13.1268 18.3755 13.0402 17.4958 13.209 16.6471C13.3778 15.7985 13.7945 15.0189 14.4063 14.4071C15.0182 13.7952 15.7977 13.3785 16.6464 13.2097C17.4951 13.0409 18.3747 13.1275 19.1742 13.4587C19.9736 13.7898 20.6569 14.3506 21.1376 15.07C21.6183 15.7895 21.8749 16.6354 21.8749 17.5007C21.8749 18.661 21.414 19.7738 20.5935 20.5942C19.773 21.4147 18.6602 21.8757 17.4999 21.8757Z" fill="#17202A" fill-opacity="0.6"/>
</g>
<defs>
<clipPath id="clip0_1279_6">
<rect width="35" height="35" fill="white"/>
</clipPath>
</defs>
</svg>
