<svg width="512" height="512" viewBox="0 0 512 512" fill="none" xmlns="http://www.w3.org/2000/svg">
<g clip-path="url(#clip0_1710_2)">
<path d="M127.403 475.414C122.74 475.412 118.205 473.883 114.494 471.06C110.782 468.236 108.098 464.275 106.852 459.781C105.606 455.288 105.866 450.51 107.594 446.178C109.321 441.847 112.42 438.2 116.416 435.797C192 390.4 192 292.907 192 234.667C192 217.693 198.743 201.414 210.745 189.412C222.747 177.41 239.026 170.667 256 170.667C272.974 170.667 289.253 177.41 301.255 189.412C313.257 201.414 320 217.693 320 234.667C320 240.325 317.752 245.751 313.752 249.752C309.751 253.753 304.325 256 298.667 256C293.009 256 287.583 253.753 283.582 249.752C279.581 245.751 277.333 240.325 277.333 234.667C277.333 229.009 275.086 223.583 271.085 219.582C267.084 215.581 261.658 213.333 256 213.333C250.342 213.333 244.916 215.581 240.915 219.582C236.914 223.583 234.667 229.009 234.667 234.667C234.667 297.536 234.667 414.592 138.368 472.384C135.054 474.368 131.265 475.415 127.403 475.414ZM233.28 505.728C281.963 456.662 310.4 387.67 317.781 300.48C318.03 297.683 317.724 294.865 316.882 292.186C316.039 289.508 314.676 287.022 312.87 284.872C311.064 282.721 308.852 280.948 306.36 279.655C303.868 278.361 301.144 277.572 298.347 277.333C295.547 277.046 292.719 277.326 290.029 278.155C287.34 278.984 284.845 280.346 282.694 282.159C280.542 283.973 278.777 286.201 277.504 288.71C276.231 291.22 275.477 293.961 275.285 296.768C268.651 374.784 245.013 433.301 203.008 475.563C199.019 479.577 196.788 485.012 196.806 490.671C196.824 496.33 199.09 501.75 203.104 505.739C207.118 509.728 212.553 511.958 218.212 511.94C223.871 511.922 229.291 509.657 233.28 505.643V505.728ZM344.213 501.76C357.154 480.259 367.93 457.527 376.384 433.899C378.151 428.614 377.781 422.848 375.352 417.833C372.923 412.818 368.628 408.953 363.386 407.063C358.144 405.174 352.371 405.41 347.301 407.722C342.231 410.034 338.267 414.238 336.256 419.435C328.745 440.386 319.184 460.544 307.712 479.616C306.258 482.013 305.29 484.673 304.864 487.443C304.438 490.214 304.562 493.041 305.228 495.764C305.895 498.487 307.091 501.052 308.749 503.313C310.407 505.573 312.494 507.485 314.891 508.939C319.731 511.875 325.54 512.769 331.039 511.422C333.762 510.756 336.327 509.559 338.587 507.902C340.848 506.244 342.759 504.157 344.213 501.76ZM394.667 366.741C402.57 323.176 406.143 278.936 405.333 234.667C405.313 204.444 396.123 174.938 378.977 150.049C361.832 125.16 337.538 106.06 309.306 95.2714C281.074 84.483 250.233 82.5149 220.859 89.627C191.485 96.739 164.96 112.597 144.789 135.104C142.825 137.174 141.296 139.616 140.292 142.287C139.288 144.958 138.83 147.803 138.946 150.654C139.061 153.505 139.747 156.304 140.963 158.885C142.18 161.466 143.901 163.777 146.026 165.681C148.152 167.585 150.637 169.043 153.336 169.969C156.035 170.896 158.892 171.271 161.738 171.074C164.585 170.876 167.363 170.11 169.908 168.82C172.452 167.529 174.713 165.742 176.555 163.563C190.961 147.483 209.907 136.154 230.889 131.071C251.871 125.989 273.901 127.393 294.068 135.098C314.235 142.803 331.59 156.446 343.838 174.224C356.086 192.002 362.652 213.078 362.667 234.667C363.454 276.199 360.152 317.707 352.811 358.592C351.733 364.142 352.903 369.893 356.063 374.581C359.223 379.269 364.115 382.511 369.664 383.595C371.02 383.866 372.399 384.002 373.781 384C378.723 383.987 383.506 382.26 387.315 379.112C391.125 375.964 393.723 371.592 394.667 366.741ZM149.333 234.667C149.327 228.713 149.82 222.768 150.805 216.896C151.442 214.069 151.497 211.142 150.965 208.294C150.434 205.445 149.327 202.734 147.714 200.327C146.1 197.921 144.013 195.868 141.58 194.294C139.147 192.72 136.419 191.658 133.562 191.174C130.705 190.689 127.779 190.792 124.963 191.475C122.147 192.158 119.499 193.408 117.182 195.148C114.865 196.889 112.927 199.083 111.486 201.597C110.045 204.111 109.131 206.892 108.8 209.771C107.392 217.995 106.678 226.323 106.667 234.667C106.667 333.76 77.952 384 21.3333 384C15.6754 384 10.2492 386.248 6.24839 390.249C2.24761 394.249 0 399.676 0 405.333C0 410.991 2.24761 416.418 6.24839 420.418C10.2492 424.419 15.6754 426.667 21.3333 426.667C103.872 426.667 149.333 358.4 149.333 234.667ZM441.6 499.499C476.708 415.747 493.44 325.437 490.667 234.667C490.765 199.231 482.737 164.243 467.2 132.395C465.974 129.873 464.264 127.618 462.167 125.758C460.07 123.897 457.626 122.468 454.977 121.552C452.327 120.636 449.523 120.25 446.725 120.418C443.926 120.585 441.188 121.302 438.667 122.528C436.145 123.754 433.89 125.464 432.03 127.561C430.169 129.659 428.74 132.102 427.824 134.751C426.908 137.401 426.522 140.205 426.69 143.003C426.857 145.802 427.574 148.54 428.8 151.061C441.494 177.1 448.062 205.699 448 234.667C450.685 319.334 435.274 403.599 402.795 481.835C401.638 484.39 400.997 487.147 400.907 489.95C400.818 492.753 401.281 495.546 402.272 498.169C403.263 500.792 404.761 503.195 406.681 505.238C408.601 507.282 410.905 508.928 413.461 510.08C416.224 511.351 419.231 512.006 422.272 512C426.352 511.983 430.341 510.796 433.767 508.58C437.193 506.364 439.911 503.213 441.6 499.499ZM64 298.667V234.667C64.0565 183.763 84.3031 134.959 120.298 98.9647C156.293 62.9699 205.096 42.7232 256 42.6668C297.565 42.5283 338.031 56.0168 371.2 81.0668C375.726 84.4616 381.416 85.9192 387.017 85.119C392.618 84.3189 397.672 81.3265 401.067 76.8001C404.461 72.2738 405.919 66.5842 405.119 60.9831C404.319 55.382 401.326 50.3282 396.8 46.9335C356.253 16.3291 306.8 -0.155319 256 0.0001126C193.785 0.0735093 134.139 24.8208 90.1467 68.8135C46.154 112.806 21.4067 172.452 21.3333 234.667V298.667C21.3333 304.325 23.5809 309.751 27.5817 313.752C31.5825 317.753 37.0087 320 42.6667 320C48.3246 320 53.7508 317.753 57.7516 313.752C61.7524 309.751 64 304.325 64 298.667Z" fill="#17202A" fill-opacity="0.5"/>
</g>
<defs>
<clipPath id="clip0_1710_2">
<rect width="512" height="512" fill="white"/>
</clipPath>
</defs>
</svg>
