<svg width="40" height="40" viewBox="0 0 40 40" fill="none" xmlns="http://www.w3.org/2000/svg">
<path d="M28.4357 15.8746L22.459 9.89789C21.99 9.42912 21.354 9.16586 20.6909 9.16602C20.0278 9.16617 19.3919 9.42974 18.9232 9.89873C18.4544 10.3677 18.1911 11.0037 18.1913 11.6668C18.1914 12.3299 18.455 12.9658 18.924 13.4346L22.989 17.4996H8.33398C7.67094 17.4996 7.03506 17.763 6.56622 18.2318C6.09738 18.7006 5.83398 19.3365 5.83398 19.9996C5.83398 20.6626 6.09738 21.2985 6.56622 21.7673C7.03506 22.2362 7.67094 22.4996 8.33398 22.4996H22.989L18.924 26.5646C18.455 27.0333 18.1914 27.6692 18.1913 28.3323C18.1911 28.9954 18.4544 29.6314 18.9232 30.1004C19.3919 30.5694 20.0278 30.833 20.6909 30.8331C21.354 30.8333 21.99 30.57 22.459 30.1012L28.4357 24.1246C29.5277 23.0295 30.141 21.5461 30.141 19.9996C30.141 18.453 29.5277 16.9696 28.4357 15.8746Z" fill="#17202A" fill-opacity="0.6"/>
</svg>
