<svg width="40" height="40" viewBox="0 0 40 40" fill="none" xmlns="http://www.w3.org/2000/svg">
<path d="M28.435 15.8746L22.4583 9.89789C21.9893 9.42912 21.3533 9.16586 20.6902 9.16602C20.0271 9.16617 19.3913 9.42974 18.9225 9.89873C18.4537 10.3677 18.1904 11.0037 18.1906 11.6668C18.1908 12.3299 18.4543 12.9658 18.9233 13.4346L22.9883 17.4996H8.33331C7.67027 17.4996 7.03439 17.763 6.56555 18.2318C6.09671 18.7006 5.83331 19.3365 5.83331 19.9996C5.83331 20.6626 6.09671 21.2985 6.56555 21.7673C7.03439 22.2362 7.67027 22.4996 8.33331 22.4996H22.9883L18.9233 26.5646C18.4543 27.0333 18.1908 27.6692 18.1906 28.3323C18.1904 28.9954 18.4537 29.6314 18.9225 30.1004C19.3913 30.5694 20.0271 30.833 20.6902 30.8331C21.3533 30.8333 21.9893 30.57 22.4583 30.1012L28.435 24.1246C29.527 23.0295 30.1403 21.5461 30.1403 19.9996C30.1403 18.453 29.527 16.9696 28.435 15.8746Z" fill="#17202A" fill-opacity="0.6"/>
</svg>
