<?xml version="1.0"?>
<svg xmlns="http://www.w3.org/2000/svg" xmlns:xlink="http://www.w3.org/1999/xlink" xmlns:svgjs="http://svgjs.com/svgjs" version="1.1" width="256" height="256" x="0" y="0" viewBox="0 0 24 24" style="enable-background:new 0 0 512 512" xml:space="preserve"><g><path d="m19.828 3.414-2.242-2.242a3.975 3.975 0 0 0 -2.829-1.172h-8.757a3 3 0 0 0 -3 3v21h18v-17.758a4.022 4.022 0 0 0 -1.172-2.828zm-1.414 1.414a1.923 1.923 0 0 1 .141.172h-2.555v-2.555a1.923 1.923 0 0 1 .172.141zm-13.414 17.172v-19a1 1 0 0 1 1-1h8v5h5v15zm2-6h10v-6h-10zm2-4h6v2h-6zm-2 6h10v2h-10z" fill="#ffffff" data-original="#000000"/></g></svg>
