<svg width="512" height="512" viewBox="0 0 512 512" fill="none" xmlns="http://www.w3.org/2000/svg">
<path d="M512 180.906V426.666C512 432.324 509.752 437.75 505.752 441.751C501.751 445.752 496.325 448 490.667 448C485.009 448 479.583 445.752 475.582 441.751C471.581 437.75 469.333 432.324 469.333 426.666V250.709L311.467 326.144C294.821 335.969 275.819 341.086 256.491 340.949C236.221 340.98 216.319 335.533 198.891 325.184L41.4507 250.24C29.0749 243.585 18.7053 233.739 11.4181 221.725C4.13088 209.71 0.191463 195.964 0.00862119 181.914C-0.174221 167.863 3.40617 154.02 10.3783 141.82C17.3504 129.62 27.4602 119.508 39.6587 112.533C40.2347 112.192 40.8534 111.872 41.4507 111.573L200.533 35.6689C217.708 25.8057 237.2 20.6957 257.005 20.8644C276.81 21.0331 296.212 26.4745 313.216 36.6289L470.549 111.573C482.964 118.442 493.339 128.475 500.619 140.653C507.9 152.831 511.826 166.719 512 180.906V180.906ZM256.469 383.573C229.175 383.633 202.349 376.48 178.709 362.837L85.3334 318.272V375.872C85.3461 398.645 92.6372 420.819 106.143 439.156C119.648 457.494 138.66 471.034 160.405 477.802C191.474 486.723 223.679 491.056 256 490.666C288.326 491.029 320.531 486.666 351.595 477.717C373.34 470.949 392.352 457.408 405.858 439.071C419.363 420.734 426.654 398.56 426.667 375.786V318.378L331.541 363.818C308.707 376.937 282.803 383.768 256.469 383.616V383.573Z" fill="#17202A" fill-opacity="0.5"/>
</svg>
