<svg width="35" height="35" viewBox="0 0 35 35" fill="none" xmlns="http://www.w3.org/2000/svg">
<g clip-path="url(#clip0_950_292)">
<path d="M33.285 1.71512C32.1704 0.650029 30.688 0.0556641 29.1463 0.0556641C27.6046 0.0556641 26.1222 0.650029 25.0075 1.71512L2.3494 24.3732C1.6026 25.1159 1.01045 25.9993 0.607191 26.9723C0.203931 27.9453 -0.00243626 28.9886 2.17009e-05 30.0418V32.8126C2.17009e-05 33.3928 0.23049 33.9492 0.640726 34.3594C1.05096 34.7697 1.60736 35.0001 2.18752 35.0001H4.95835C6.01208 35.003 7.0559 34.7968 8.02941 34.3935C9.00291 33.9902 9.88677 33.3979 10.6298 32.6507L33.285 9.99262C34.3811 8.89411 34.9967 7.40567 34.9967 5.85387C34.9967 4.30207 34.3811 2.81363 33.285 1.71512ZM7.53377 29.5576C6.84892 30.238 5.92375 30.6215 4.95835 30.6251H4.37502V30.0418C4.37802 29.0754 4.76153 28.1491 5.44252 27.4635L22.3125 10.5978L24.4023 12.6876L7.53377 29.5576ZM30.1875 6.8995L27.4954 9.59595L25.4042 7.5047L28.1021 4.81262C28.3835 4.54368 28.7578 4.39359 29.147 4.39359C29.5362 4.39359 29.9105 4.54368 30.1919 4.81262C30.4669 5.09052 30.6209 5.46596 30.62 5.85696C30.6192 6.24796 30.4637 6.62275 30.1875 6.8995Z" fill="#17202A" fill-opacity="0.6"/>
</g>
<defs>
<clipPath id="clip0_950_292">
<rect width="35" height="35" fill="white"/>
</clipPath>
</defs>
</svg>
