<svg width="40" height="41" viewBox="0 0 40 41" fill="none" xmlns="http://www.w3.org/2000/svg">
<path d="M20 0.313477C14.6978 0.31833 9.61442 2.07286 5.86501 5.19216C2.11561 8.31147 0.00636452 12.5408 0 16.9524C0 21.2372 3.98758 27.9428 11.8525 36.8824C12.7888 37.9497 14.0147 38.8179 15.4305 39.4165C16.8463 40.015 18.4119 40.327 20 40.327C21.5881 40.327 23.1537 40.015 24.5695 39.4165C25.9853 38.8179 27.2112 37.9497 28.1475 36.8824C36.0124 27.9428 40 21.2372 40 16.9524C39.9936 12.5408 37.8844 8.31147 34.135 5.19216C30.3856 2.07286 25.3022 0.31833 20 0.313477ZM20 23.5846C18.4147 23.5846 16.8651 23.1935 15.547 22.4607C14.2289 21.7279 13.2015 20.6864 12.5949 19.4678C11.9882 18.2492 11.8295 16.9083 12.1388 15.6147C12.448 14.321 13.2114 13.1328 14.3324 12.2001C15.4533 11.2674 16.8815 10.6323 18.4363 10.375C19.9911 10.1176 21.6027 10.2497 23.0673 10.7545C24.5319 11.2592 25.7837 12.114 26.6644 13.2107C27.5451 14.3074 28.0152 15.5967 28.0152 16.9157C28.0152 18.6844 27.1708 20.3807 25.6676 21.6314C24.1645 22.882 22.1258 23.5846 20 23.5846Z" fill="#17202A" fill-opacity="0.5"/>
</svg>
