<svg width="215" height="88" viewBox="0 0 215 88" fill="none" xmlns="http://www.w3.org/2000/svg">
<path d="M198.118 80.0841C196.186 80.5755 194.202 80.903 192.218 80.3025C188.04 78.9922 186.16 75.7165 185.377 71.5126C185.272 71.0213 185.22 70.5845 185.116 69.8748C184.28 70.9667 183.601 71.8948 182.87 72.8229C180.782 75.3889 178.327 77.4635 175.142 78.2824C169.45 79.8111 163.915 76.7538 161.356 70.8575C160.625 69.165 160.155 67.418 159.737 65.3979C159.163 66.4352 158.693 67.3088 158.171 68.1277C154.933 73.5872 150.651 77.6273 144.49 79.156C139.999 80.2479 135.56 79.9203 131.383 78.1187C127.153 76.317 125.012 72.5499 123.811 68.1277C122.662 63.9239 122.558 59.6108 123.236 55.2978C123.289 54.8064 123.341 54.3697 123.393 53.7691C122.766 53.9875 122.505 54.5335 122.14 54.861C119.163 57.7546 116.291 57.9184 113.054 55.407C112.27 54.8064 112.166 54.4789 112.949 53.8237C114.986 52.0221 116.291 49.8382 116.135 46.8901C116.082 45.8528 115.926 44.8155 114.934 44.3241C113.994 43.8328 113.158 44.3241 112.427 44.9793C109.503 47.436 107.31 50.548 105.273 53.8237C100.678 61.2487 97.3359 69.2196 95.8738 77.9549C95.7693 78.5008 95.5605 78.7738 95.0905 78.9922C91.9574 80.2479 87.6232 78.6646 85.9522 75.5527C84.0723 72.004 83.3935 68.1277 83.289 64.1422C83.0802 53.8783 85.6911 44.2695 89.242 34.8245C90.2341 32.2039 92.1662 30.8936 94.7772 30.5661C99.268 29.9655 103.498 30.7299 107.519 32.8591C108.511 33.405 108.354 33.7872 107.78 34.5515C103.341 40.3932 100.73 47.1631 98.6414 54.1513C98.5892 54.3151 98.6414 54.4789 98.6414 54.6426C98.4325 54.6972 98.4325 54.8064 98.4325 54.9702C98.4325 55.0248 98.4847 55.0248 98.5369 55.0248C98.5892 54.9156 98.5892 54.7518 98.6414 54.6426C100.208 51.8037 101.722 48.9647 103.341 46.2349C106.161 41.4306 109.346 36.8991 113.524 33.2412C116.03 31.0028 118.798 29.2012 122.297 29.3104C124.281 29.365 125.795 30.2931 126.735 32.2039C127.571 33.951 127.936 35.8072 127.988 37.7727C128.041 38.7554 127.988 39.7381 127.988 40.9392C129.085 39.4651 129.973 38.1548 131.017 36.8991C133.785 33.5688 137.127 31.0574 141.356 30.2385C145.952 29.365 150.338 29.7471 153.732 33.6234C157.231 37.6635 158.223 42.4679 156.97 47.709C156.03 51.5307 152.322 53.4415 148.197 52.5134C147.884 52.4588 147.57 52.3496 147.257 52.2404C147.153 51.7491 147.623 51.6945 147.831 51.4761C150.547 49.0739 151.435 45.9074 151.069 42.3041C150.965 41.103 149.868 40.5024 148.615 40.8846C147.153 41.3214 146.004 42.3587 145.168 43.5598C139.894 51.0393 137.231 59.2833 138.641 68.6737C139.059 71.458 142.557 73.8056 145.429 73.3689C148.667 72.8229 151.33 71.2942 153.471 68.7283C155.769 65.9439 157.701 62.8865 159.372 59.6654C160.103 58.1913 159.894 56.4989 160.103 54.9156C161.043 47.7636 163.654 41.4306 168.354 36.1348C172.635 31.2758 177.962 29.0374 184.332 30.0747C187.831 30.6207 190.285 32.6953 191.434 36.244C191.539 36.517 191.591 36.8445 191.695 37.1175C191.748 37.3359 191.8 37.5543 191.904 37.8819C192.426 37.4997 192.531 36.9537 192.687 36.4624C193.993 32.5315 196.917 31.0574 200.625 30.8391C204.176 30.6753 207.57 31.385 210.807 33.0229C211.225 33.2412 211.643 33.3504 212.061 33.5688C212.165 34.1148 211.852 34.4969 211.591 34.9337C211.069 35.8618 210.337 36.7354 210.076 37.8273C209.815 38.2094 209.554 38.5916 209.345 39.0284C206.734 44.2695 204.541 49.6199 202.557 55.134C200.886 59.9384 199.215 64.7974 198.64 69.9293C198.536 70.9667 198.379 72.0586 199.267 72.7137C200.207 73.4235 201.199 72.7683 202.035 72.2224C203.445 71.2942 204.541 70.0385 205.533 68.7283C208.771 64.4698 211.277 59.6654 213.836 54.9156C214.045 54.5334 214.149 53.9329 214.672 54.1513C215.142 54.3151 214.985 54.861 214.933 55.2978C214.567 58.4097 213.679 61.4125 212.426 64.2514C210.546 68.4553 207.883 72.1678 204.854 75.4981C202.505 77.3543 200.416 78.883 198.118 80.0841ZM187.883 46.1804C187.831 44.7609 187.936 43.7236 187.57 42.6862C186.996 40.9392 185.742 40.3932 184.228 41.2122C183.079 41.8127 182.244 42.7408 181.46 43.8328C178.171 48.528 176.447 53.9329 175.038 59.447C174.15 63.1049 173.628 66.7628 173.993 70.5299C174.254 72.8775 175.873 73.751 177.753 72.5499C178.327 72.1678 178.797 71.731 179.267 71.185C181.199 68.7283 182.505 65.9439 183.654 63.0503C186.003 57.5362 187.622 51.8583 187.883 46.1804Z" fill="#FBFCFC"/>
<path d="M6.73623 86.5812C4.1775 85.4893 1.87988 84.0152 0 81.886C0.783282 81.5039 1.56656 81.9406 2.29763 81.9406C8.09391 81.9406 13.368 80.0298 18.0677 76.5903C24.2818 72.0589 29.1903 66.2717 33.5767 59.9387C36.031 56.39 38.4853 52.8413 40.6262 49.0196C41.6706 47.6547 42.6628 46.2352 43.3416 44.5974C45.0648 42.359 46.3703 39.793 47.7802 37.3362C52.741 28.7101 57.7018 20.084 63.1848 11.7855C66.7357 6.38061 71.3309 2.50433 77.6494 1.24864C82.7146 0.265922 87.5187 0.975663 92.114 3.32326C92.8451 3.70543 93.0539 3.92381 92.3751 4.68815C89.7642 7.6363 88.0932 11.2396 86.5788 14.8429C81.2525 27.2906 77.4927 40.2843 75.6651 53.7694C74.934 59.2835 74.5685 64.8523 75.6129 70.421C76.135 73.2599 77.1272 75.8805 79.2682 77.846C80.1559 78.6649 79.6859 78.9379 78.9549 79.2654C76.9706 80.0298 74.934 80.3574 72.8453 80.5211C70.0777 80.7395 67.2578 80.6303 64.4902 80.0298C59.7383 78.9925 57.5451 75.6621 56.8141 70.9123C56.5008 68.7285 56.083 66.5447 55.1431 64.5247C53.211 60.3208 49.7645 58.41 45.587 57.5911C44.8037 57.4273 44.4904 57.864 44.1249 58.4646C40.2607 64.6339 36.2399 70.694 31.8013 76.3719C29.9736 78.7195 27.9893 81.0125 25.6394 82.8687C20.3653 87.018 14.4646 88.3283 8.0417 86.8542C7.62395 86.745 7.15398 86.6904 6.73623 86.5812ZM72.062 13.5872C71.6442 13.6964 71.3831 14.0786 71.122 14.4061C69.5555 16.2078 68.1978 18.2278 66.9445 20.3024C60.1039 31.7129 53.3154 43.1233 46.527 54.5883C46.3703 54.8613 46.057 55.0797 46.2137 55.5164C46.6836 55.6256 47.1014 55.4618 47.5714 55.3527C50.7567 54.8067 53.9421 54.4791 57.023 56.0078C57.9107 56.4446 57.754 55.6802 57.8585 55.2435C59.6339 46.945 62.1404 38.8649 65.0124 30.9485C67.1534 25.1068 69.5555 19.3743 72.2186 13.751C72.2186 13.6418 72.2709 13.5872 72.2709 13.478C72.2186 13.5326 72.1664 13.5872 72.062 13.5872Z" fill="#FBFCFC"/>
<path d="M98.4313 54.751C98.3794 54.86 98.3794 55.0236 98.3274 55.1326C98.2755 55.1326 98.2755 55.0781 98.2236 55.0781C98.2236 54.9145 98.2236 54.751 98.4313 54.751Z" fill="#FEFEFE"/>
</svg>
