<svg width="58" height="56" viewBox="0 0 58 56" fill="none" xmlns="http://www.w3.org/2000/svg">
<g clip-path="url(#clip0_1653_8)">
<path d="M45.9167 9.33333H43.2583C42.6974 6.69996 41.2134 4.33381 39.0564 2.63368C36.8993 0.933543 34.2012 0.00339389 31.4167 0L26.5833 0C23.7988 0.00339389 21.1007 0.933543 18.9436 2.63368C16.7866 4.33381 15.3026 6.69996 14.7417 9.33333H12.0833C8.87981 9.33704 5.8086 10.5674 3.54336 12.7545C1.27813 14.9416 0.00383732 17.9069 0 21L0 28H58V21C57.9962 17.9069 56.7219 14.9416 54.4566 12.7545C52.1914 10.5674 49.1202 9.33704 45.9167 9.33333ZM19.778 9.33333C20.276 7.97321 21.1971 6.79488 22.4153 5.95954C23.6335 5.1242 25.0892 4.67265 26.5833 4.66667H31.4167C32.9108 4.67265 34.3665 5.1242 35.5847 5.95954C36.8029 6.79488 37.724 7.97321 38.222 9.33333H19.778Z" fill="#17202A" fill-opacity="0.5"/>
<path d="M31.4167 35.0003C31.4167 35.6192 31.1621 36.2127 30.7088 36.6502C30.2556 37.0878 29.6409 37.3337 29 37.3337C28.3591 37.3337 27.7444 37.0878 27.2912 36.6502C26.8379 36.2127 26.5833 35.6192 26.5833 35.0003V32.667H0V44.3337C0.00383732 47.4267 1.27813 50.392 3.54336 52.5791C5.8086 54.7663 8.87981 55.9966 12.0833 56.0003H45.9167C49.1202 55.9966 52.1914 54.7663 54.4566 52.5791C56.7219 50.392 57.9962 47.4267 58 44.3337V32.667H31.4167V35.0003Z" fill="#17202A" fill-opacity="0.5"/>
</g>
<defs>
<clipPath id="clip0_1653_8">
<rect width="58" height="56" fill="white"/>
</clipPath>
</defs>
</svg>
