<svg width="60" height="56" viewBox="0 0 60 56" fill="none" xmlns="http://www.w3.org/2000/svg">
<path d="M60 53.664C60 54.2836 59.7366 54.8777 59.2678 55.3158C58.7989 55.7539 58.163 56 57.5 56H2.5C1.83696 56 1.20107 55.7539 0.732233 55.3158C0.263392 54.8777 0 54.2836 0 53.664C0 53.0445 0.263392 52.4503 0.732233 52.0123C1.20107 51.5742 1.83696 51.3281 2.5 51.3281H57.5C58.163 51.3281 58.7989 51.5742 59.2678 52.0123C59.7366 52.4503 60 53.0445 60 53.664ZM9.375 34.9764C12.045 34.9764 13.75 33.4416 13.75 32.6404C13.75 32.0209 14.0134 31.4267 14.4822 30.9886C14.9511 30.5505 15.587 30.3044 16.25 30.3044C16.913 30.3044 17.5489 30.5505 18.0178 30.9886C18.4866 31.4267 18.75 32.0209 18.75 32.6404C18.75 33.3552 20.4025 34.9764 23.125 34.9764C25.795 34.9764 27.5 33.4416 27.5 32.6404C27.5 32.0209 27.7634 31.4267 28.2322 30.9886C28.7011 30.5505 29.337 30.3044 30 30.3044C30.663 30.3044 31.2989 30.5505 31.7678 30.9886C32.2366 31.4267 32.5 32.0209 32.5 32.6404C32.5 33.3552 34.1525 34.9764 36.875 34.9764C39.545 34.9764 41.25 33.4416 41.25 32.6404C41.25 32.0209 41.5134 31.4267 41.9822 30.9886C42.4511 30.5505 43.087 30.3044 43.75 30.3044C44.413 30.3044 45.0489 30.5505 45.5178 30.9886C45.9866 31.4267 46.25 32.0209 46.25 32.6404C46.25 33.3552 47.9025 34.9764 50.625 34.9764C53.3475 34.9764 55 33.3552 55 32.6404C54.996 29.5439 53.6778 26.5752 51.3345 24.3856C48.9911 22.196 45.814 20.9643 42.5 20.9606H32.5V15.8588C33.9573 15.3774 35.2198 14.4871 36.1148 13.3096C37.0098 12.1321 37.4936 10.725 37.5 9.28078C36.9633 6.30476 35.5148 3.53791 33.33 1.31515C32.8975 0.899017 32.3801 0.568203 31.8083 0.3423C31.2365 0.116398 30.622 0 30.0012 0C29.3805 0 28.766 0.116398 28.1942 0.3423C27.6224 0.568203 27.105 0.899017 26.6725 1.31515C24.4859 3.5371 23.0365 6.30421 22.5 9.28078C22.5064 10.725 22.9902 12.1321 23.8852 13.3096C24.7802 14.4871 26.0427 15.3774 27.5 15.8588V20.9606H17.5C14.186 20.9643 11.0089 22.196 8.66555 24.3856C6.32221 26.5752 5.00397 29.5439 5 32.6404C5 33.3552 6.6525 34.9764 9.375 34.9764ZM7.5 46.6562H52.5C53.163 46.6562 53.7989 46.41 54.2678 45.972C54.7366 45.5339 55 44.9397 55 44.3202V38.7723C53.6222 39.3439 52.1325 39.6422 50.625 39.6483C48.1075 39.6661 45.6672 38.8369 43.75 37.3123C41.8216 38.8143 39.3923 39.6398 36.8818 39.6462C34.3712 39.6526 31.9371 38.8395 30 37.3474C28.0629 38.8395 25.6288 39.6526 23.1182 39.6462C20.6077 39.6398 18.1784 38.8143 16.25 37.3123C14.3328 38.8369 11.8925 39.6661 9.375 39.6483C7.86752 39.6422 6.37779 39.3439 5 38.7723V44.3202C5 44.9397 5.26339 45.5339 5.73223 45.972C6.20107 46.41 6.83696 46.6562 7.5 46.6562Z" fill="#17202A" fill-opacity="0.5"/>
</svg>
