<svg width="70" height="67" viewBox="0 0 70 67" fill="none" xmlns="http://www.w3.org/2000/svg">
<g clip-path="url(#clip0_845_10)">
<path d="M35 33.5C38.4612 33.5 41.8446 32.5176 44.7225 30.6771C47.6003 28.8366 49.8434 26.2206 51.1679 23.16C52.4924 20.0993 52.839 16.7314 52.1637 13.4822C51.4885 10.2331 49.8218 7.2485 47.3744 4.90597C44.927 2.56344 41.8088 0.968157 38.4141 0.321854C35.0194 -0.324448 31.5007 0.00725754 28.303 1.27503C25.1053 2.54279 22.3722 4.68968 20.4493 7.44421C18.5264 10.1987 17.5 13.4372 17.5 16.75C17.5046 21.191 19.3499 25.4489 22.6307 28.5892C25.9116 31.7294 30.3601 33.4956 35 33.5ZM35 5.58334C37.3075 5.58334 39.5631 6.23825 41.4817 7.46526C43.4002 8.69227 44.8956 10.4363 45.7786 12.4767C46.6616 14.5172 46.8927 16.7624 46.4425 18.9285C45.9923 21.0946 44.8812 23.0843 43.2496 24.646C41.618 26.2077 39.5392 27.2712 37.2761 27.7021C35.0129 28.133 32.6672 27.9118 30.5354 27.0667C28.4036 26.2215 26.5815 24.7902 25.2995 22.9539C24.0176 21.1175 23.3333 18.9586 23.3333 16.75C23.3333 13.7884 24.5625 10.9481 26.7504 8.85398C28.9383 6.75983 31.9058 5.58334 35 5.58334Z" fill="#17202A"/>
<path d="M35.25 36.5C28.2904 36.5074 21.6181 39.1569 16.697 43.8671C11.7758 48.5774 9.00772 54.9637 9 61.625C9 62.3654 9.30729 63.0755 9.85427 63.599C10.4013 64.1225 11.1431 64.4167 11.9167 64.4167C12.6902 64.4167 13.4321 64.1225 13.9791 63.599C14.526 63.0755 14.8333 62.3654 14.8333 61.625C14.8333 56.4422 16.9844 51.4717 20.8132 47.807C24.6421 44.1422 29.8352 42.0833 35.25 42.0833C40.6648 42.0833 45.8579 44.1422 49.6868 47.807C53.5156 51.4717 55.6667 56.4422 55.6667 61.625C55.6667 62.3654 55.974 63.0755 56.5209 63.599C57.0679 64.1225 57.8098 64.4167 58.5833 64.4167C59.3569 64.4167 60.0988 64.1225 60.6457 63.599C61.1927 63.0755 61.5 62.3654 61.5 61.625C61.4923 54.9637 58.7242 48.5774 53.803 43.8671C48.8819 39.1569 42.2096 36.5074 35.25 36.5Z" fill="#17202A"/>
<path d="M12.9875 62.25H58.0125" stroke="#17202A" stroke-width="5" stroke-linecap="round"/>
</g>
<defs>
<clipPath id="clip0_845_10">
<rect width="70" height="67" fill="white"/>
</clipPath>
</defs>
</svg>
