<svg width="28" height="28" viewBox="0 0 28 28" fill="none" xmlns="http://www.w3.org/2000/svg">
<g clip-path="url(#clip0_1552_4)">
<path d="M20.6742 3.5L19.0257 1.36267C18.6973 0.940107 18.2771 0.597819 17.7968 0.36173C17.3165 0.12564 16.7888 0.00194022 16.2537 0L11.7457 0C11.2105 0.00194022 10.6828 0.12564 10.2026 0.36173C9.72232 0.597819 9.30208 0.940107 8.9737 1.36267L7.3252 3.5H20.6742Z" fill="white"/>
<path d="M13.9997 21.0003C16.577 21.0003 18.6663 18.911 18.6663 16.3337C18.6663 13.7563 16.577 11.667 13.9997 11.667C11.4223 11.667 9.33301 13.7563 9.33301 16.3337C9.33301 18.911 11.4223 21.0003 13.9997 21.0003Z" fill="white"/>
<path d="M22.1667 5.83301H5.83333C4.28681 5.83486 2.80415 6.45004 1.71059 7.5436C0.617029 8.63716 0.0018525 10.1198 0 11.6663L0 22.1663C0.0018525 23.7129 0.617029 25.1955 1.71059 26.2891C2.80415 27.3826 4.28681 27.9978 5.83333 27.9997H22.1667C23.7132 27.9978 25.1959 27.3826 26.2894 26.2891C27.383 25.1955 27.9981 23.7129 28 22.1663V11.6663C27.9981 10.1198 27.383 8.63716 26.2894 7.5436C25.1959 6.45004 23.7132 5.83486 22.1667 5.83301ZM14 23.333C12.6155 23.333 11.2622 22.9225 10.111 22.1533C8.95986 21.3841 8.06266 20.2909 7.53284 19.0118C7.00303 17.7327 6.86441 16.3252 7.1345 14.9674C7.4046 13.6095 8.07129 12.3622 9.05025 11.3833C10.0292 10.4043 11.2765 9.73761 12.6344 9.46751C13.9922 9.19741 15.3997 9.33604 16.6788 9.86585C17.9579 10.3957 19.0511 11.2929 19.8203 12.444C20.5895 13.5952 21 14.9485 21 16.333C20.9981 18.189 20.2601 19.9684 18.9477 21.2807C17.6353 22.5931 15.8559 23.3312 14 23.333Z" fill="white"/>
</g>
<defs>
<clipPath id="clip0_1552_4">
<rect width="28" height="28" fill="white"/>
</clipPath>
</defs>
</svg>
