<svg width="35" height="27" viewBox="0 0 35 27" fill="none" xmlns="http://www.w3.org/2000/svg">
<path d="M3.28125 0C1.46973 0 0 1.46973 0 3.28125C0 4.31348 0.485352 5.28418 1.3125 5.90625L16.1875 17.0625C16.9668 17.6436 18.0332 17.6436 18.8125 17.0625L33.6875 5.90625C34.5146 5.28418 35 4.31348 35 3.28125C35 1.46973 33.5303 0 31.7188 0H3.28125ZM0 7.65625V21.875C0 24.2881 1.96191 26.25 4.375 26.25H30.625C33.0381 26.25 35 24.2881 35 21.875V7.65625L20.125 18.8125C18.5664 19.9814 16.4336 19.9814 14.875 18.8125L0 7.65625Z" fill="white"/>
</svg>
