<svg width="30" height="30" viewBox="0 0 30 30" fill="none" xmlns="http://www.w3.org/2000/svg">
<path d="M2.78906 17.6016L13.377 27.4863C13.8164 27.8965 14.3965 28.125 15 28.125C15.6035 28.125 16.1836 27.8965 16.623 27.4863L27.2109 17.6016C28.9922 15.9434 30 13.6172 30 11.1855V10.8457C30 6.75 27.041 3.25781 23.0039 2.58399C20.332 2.13867 17.6133 3.01172 15.7031 4.92188L15 5.625L14.2969 4.92188C12.3867 3.01172 9.66797 2.13867 6.99609 2.58399C2.95898 3.25781 0 6.75 0 10.8457V11.1855C0 13.6172 1.00781 15.9434 2.78906 17.6016Z" fill="white"/>
</svg>
