<svg width="30" height="30" viewBox="0 0 30 30" fill="none" xmlns="http://www.w3.org/2000/svg">
<g clip-path="url(#clip0_302_10)">
<path d="M30 1.875C30 8.53125 25.043 14.0332 18.6211 14.8828C18.2051 11.7539 16.8281 8.92969 14.7949 6.7207C17.0391 2.71289 21.3281 0 26.25 0H28.125C29.1621 0 30 0.837891 30 1.875ZM0 5.625C0 4.58789 0.837891 3.75 1.875 3.75H3.75C10.998 3.75 16.875 9.62695 16.875 16.875V18.75V28.125C16.875 29.1621 16.0371 30 15 30C13.9629 30 13.125 29.1621 13.125 28.125V18.75C5.87695 18.75 0 12.873 0 5.625Z" fill="white"/>
</g>
<defs>
<clipPath id="clip0_302_10">
<rect width="30" height="30" fill="white"/>
</clipPath>
</defs>
</svg>
