<svg width="35" height="35" viewBox="0 0 35 35" fill="none" xmlns="http://www.w3.org/2000/svg">
<g clip-path="url(#clip0_301_14)">
<path d="M4.375 0C1.96191 0 0 1.96191 0 4.375V24.0625C0 26.4756 1.96191 28.4375 4.375 28.4375H10.9375V33.9062C10.9375 34.3232 11.1699 34.6992 11.5391 34.8838C11.9082 35.0684 12.3525 35.0273 12.6875 34.7812L21.1436 28.4375H30.625C33.0381 28.4375 35 26.4756 35 24.0625V4.375C35 1.96191 33.0381 0 30.625 0H4.375Z" fill="white"/>
<g clip-path="url(#clip1_301_14)">
<path d="M18.8125 5.5C18.8125 4.80859 18.2539 4.25 17.5625 4.25C16.8711 4.25 16.3125 4.80859 16.3125 5.5V15.5C16.3125 16.1914 16.8711 16.75 17.5625 16.75C18.2539 16.75 18.8125 16.1914 18.8125 15.5V5.5ZM17.5625 21.75C17.9769 21.75 18.3743 21.5854 18.6674 21.2924C18.9604 20.9993 19.125 20.6019 19.125 20.1875C19.125 19.7731 18.9604 19.3757 18.6674 19.0826C18.3743 18.7896 17.9769 18.625 17.5625 18.625C17.1481 18.625 16.7507 18.7896 16.4576 19.0826C16.1646 19.3757 16 19.7731 16 20.1875C16 20.6019 16.1646 20.9993 16.4576 21.2924C16.7507 21.5854 17.1481 21.75 17.5625 21.75Z" fill="#483D8B"/>
</g>
</g>
<defs>
<clipPath id="clip0_301_14">
<rect width="35" height="35" fill="white"/>
</clipPath>
<clipPath id="clip1_301_14">
<rect width="5" height="20" fill="white" transform="translate(16 3)"/>
</clipPath>
</defs>
</svg>
