<svg width="50" height="50" viewBox="0 0 50 50" fill="none" xmlns="http://www.w3.org/2000/svg">
<g clip-path="url(#clip0_556_68)">
<path d="M39.5833 0H10.4167C7.65501 0.00330804 5.00741 1.10184 3.05462 3.05462C1.10184 5.00741 0.00330804 7.65501 0 10.4167L0 39.5833C0.00330804 42.345 1.10184 44.9926 3.05462 46.9454C5.00741 48.8982 7.65501 49.9967 10.4167 50V43.75C10.4167 39.8823 11.9531 36.1729 14.688 33.438C17.4229 30.7031 21.1323 29.1667 25 29.1667C28.8677 29.1667 32.5771 30.7031 35.312 33.438C38.0469 36.1729 39.5833 39.8823 39.5833 43.75V50C42.345 49.9967 44.9926 48.8982 46.9454 46.9454C48.8982 44.9926 49.9967 42.345 50 39.5833V10.4167C49.9967 7.65501 48.8982 5.00741 46.9454 3.05462C44.9926 1.10184 42.345 0.00330804 39.5833 0V0ZM25 25C23.3518 25 21.7407 24.5113 20.3702 23.5956C18.9998 22.6799 17.9317 21.3784 17.301 19.8557C16.6703 18.333 16.5052 16.6574 16.8268 15.0409C17.1483 13.4244 17.942 11.9395 19.1074 10.7741C20.2729 9.60867 21.7577 8.815 23.3742 8.49346C24.9908 8.17191 26.6663 8.33694 28.189 8.96767C29.7117 9.5984 31.0132 10.6665 31.9289 12.0369C32.8446 13.4073 33.3333 15.0185 33.3333 16.6667C33.3333 18.8768 32.4554 20.9964 30.8926 22.5592C29.3298 24.122 27.2101 25 25 25Z" fill="#17202A" fill-opacity="0.5"/>
<path d="M24.9999 33.333C22.2383 33.3363 19.5907 34.4348 17.6379 36.3876C15.6851 38.3404 14.5866 40.988 14.5833 43.7497V49.9997H35.4166V43.7497C35.4133 40.988 34.3147 38.3404 32.362 36.3876C30.4092 34.4348 27.7616 33.3363 24.9999 33.333Z" fill="#17202A" fill-opacity="0.5"/>
<path d="M25.1667 21.8332C27.4679 21.8332 29.3333 19.8558 29.3333 17.4166C29.3333 14.9774 27.4679 13 25.1667 13C22.8655 13 21 14.9774 21 17.4166C21 19.8558 22.8655 21.8332 25.1667 21.8332Z" fill="#17202A" fill-opacity="0.5"/>
</g>
<defs>
<clipPath id="clip0_556_68">
<rect width="50" height="50" fill="white"/>
</clipPath>
</defs>
</svg>
