<svg width="60" height="56" viewBox="0 0 60 56" fill="none" xmlns="http://www.w3.org/2000/svg">
<g clip-path="url(#clip0_1646_46)">
<path d="M47.5 0H12.5C9.18601 0.003705 6.00889 1.23406 3.66555 3.42118C1.3222 5.6083 0.00396964 8.57361 0 11.6667L0 44.3333C0.00396964 47.4264 1.3222 50.3917 3.66555 52.5788C6.00889 54.7659 9.18601 55.9963 12.5 56V49C12.5 44.6681 14.3437 40.5137 17.6256 37.4506C20.9075 34.3875 25.3587 32.6667 30 32.6667C34.6413 32.6667 39.0925 34.3875 42.3744 37.4506C45.6563 40.5137 47.5 44.6681 47.5 49V56C50.814 55.9963 53.9911 54.7659 56.3345 52.5788C58.6778 50.3917 59.996 47.4264 60 44.3333V11.6667C59.996 8.57361 58.6778 5.6083 56.3345 3.42118C53.9911 1.23406 50.814 0.003705 47.5 0V0ZM30 28C28.0222 28 26.0888 27.4526 24.4443 26.427C22.7998 25.4015 21.5181 23.9438 20.7612 22.2384C20.0043 20.5329 19.8063 18.6563 20.1921 16.8458C20.578 15.0353 21.5304 13.3723 22.9289 12.067C24.3275 10.7617 26.1093 9.8728 28.0491 9.51267C29.9889 9.15254 31.9996 9.33737 33.8268 10.0438C35.6541 10.7502 37.2159 11.9465 38.3147 13.4813C39.4135 15.0162 40 16.8207 40 18.6667C40 21.142 38.9464 23.516 37.0711 25.2663C35.1957 27.0167 32.6522 28 30 28Z" fill="#17202A" fill-opacity="0.5"/>
<path d="M30 37.333C26.686 37.3367 23.5089 38.5671 21.1655 40.7542C18.8222 42.9413 17.504 45.9066 17.5 48.9997V55.9997H42.5V48.9997C42.496 45.9066 41.1778 42.9413 38.8345 40.7542C36.4911 38.5671 33.314 37.3367 30 37.333Z" fill="#17202A" fill-opacity="0.5"/>
<path d="M30.2002 24.4527C32.9616 24.4527 35.2002 22.2381 35.2002 19.5062C35.2002 16.7742 32.9616 14.5596 30.2002 14.5596C27.4388 14.5596 25.2002 16.7742 25.2002 19.5062C25.2002 22.2381 27.4388 24.4527 30.2002 24.4527Z" fill="#17202A" fill-opacity="0.5"/>
</g>
<defs>
<clipPath id="clip0_1646_46">
<rect width="60" height="56" fill="white"/>
</clipPath>
</defs>
</svg>
