<svg width="40" height="40" viewBox="0 0 40 40" fill="none" xmlns="http://www.w3.org/2000/svg">
<g clip-path="url(#clip0_559_102)">
<path d="M39.9233 9.23633L25.8933 23.2663C24.329 24.8268 22.2096 25.7031 20 25.7031C17.7904 25.7031 15.671 24.8268 14.1067 23.2663L0.0766667 9.23633C0.0533333 9.49966 0 9.738 0 9.99966V29.9997C0.00264643 32.209 0.88147 34.3271 2.4437 35.8893C4.00593 37.4515 6.12401 38.3304 8.33333 38.333H31.6667C33.876 38.3304 35.9941 37.4515 37.5563 35.8893C39.1185 34.3271 39.9974 32.209 40 29.9997V9.99966C40 9.738 39.9467 9.49966 39.9233 9.23633Z" fill="#17202A" fill-opacity="0.5"/>
<path d="M23.5367 20.9103L38.76 5.68533C38.0225 4.46252 36.9824 3.45039 35.7399 2.74654C34.4975 2.0427 33.0946 1.67089 31.6667 1.66699H8.33332C6.90536 1.67089 5.50249 2.0427 4.26003 2.74654C3.01758 3.45039 1.97745 4.46252 1.23999 5.68533L16.4633 20.9103C17.4026 21.8458 18.6743 22.3711 20 22.3711C21.3257 22.3711 22.5974 21.8458 23.5367 20.9103Z" fill="#17202A" fill-opacity="0.5"/>
</g>
<defs>
<clipPath id="clip0_559_102">
<rect width="40" height="40" fill="white"/>
</clipPath>
</defs>
</svg>
