<svg width="50" height="56" viewBox="0 0 50 56" fill="none" xmlns="http://www.w3.org/2000/svg">
<path d="M25 0C18.3723 0.00679253 12.018 2.46231 7.33127 6.82786C2.64451 11.1934 0.00795565 17.1125 0 23.2866C0 29.2833 4.98447 38.6679 14.8156 51.1793C15.986 52.6729 17.5184 53.888 19.2882 54.7257C21.0579 55.5634 23.0149 56 25 56C26.9851 56 28.9421 55.5634 30.7118 54.7257C32.4816 53.888 34.014 52.6729 35.1843 51.1793C45.0155 38.6679 50 29.2833 50 23.2866C49.992 17.1125 47.3555 11.1934 42.6687 6.82786C37.982 2.46231 31.6277 0.00679253 25 0ZM25 32.5686C23.0184 32.5686 21.0813 32.0212 19.4337 30.9957C17.7861 29.9701 16.5019 28.5124 15.7436 26.807C14.9853 25.1016 14.7869 23.2249 15.1735 21.4145C15.5601 19.604 16.5143 17.9409 17.9155 16.6356C19.3167 15.3304 21.1019 14.4414 23.0454 14.0813C24.9889 13.7212 27.0034 13.906 28.8341 14.6124C30.6649 15.3189 32.2296 16.5151 33.3305 18.05C34.4314 19.5848 35.019 21.3893 35.019 23.2353C35.019 25.7106 33.9635 28.0846 32.0845 29.835C30.2056 31.5853 27.6572 32.5686 25 32.5686Z" fill="#17202A" fill-opacity="0.5"/>
</svg>
