<svg width="30" height="30" viewBox="0 0 30 30" fill="none" xmlns="http://www.w3.org/2000/svg">
<g clip-path="url(#clip0_302_2)">
<path d="M27.6328 1.27148C26.3496 -0.0117188 24.2754 -0.0117188 22.9922 1.27148L21.2285 3.0293L26.9648 8.76563L28.7285 7.00195C30.0117 5.71875 30.0117 3.64453 28.7285 2.36133L27.6328 1.27148ZM10.1016 14.1621C9.74414 14.5195 9.46875 14.959 9.31055 15.4453L7.57617 20.6484C7.40625 21.1523 7.54102 21.709 7.91602 22.0898C8.29102 22.4707 8.84766 22.5996 9.35742 22.4297L14.5605 20.6953C15.041 20.5313 15.4805 20.2617 15.8437 19.9043L25.6465 10.0957L19.9043 4.35352L10.1016 14.1621ZM5.625 3.75C2.51953 3.75 0 6.26953 0 9.375V24.375C0 27.4805 2.51953 30 5.625 30H20.625C23.7305 30 26.25 27.4805 26.25 24.375V18.75C26.25 17.7129 25.4121 16.875 24.375 16.875C23.3379 16.875 22.5 17.7129 22.5 18.75V24.375C22.5 25.4121 21.6621 26.25 20.625 26.25H5.625C4.58789 26.25 3.75 25.4121 3.75 24.375V9.375C3.75 8.33789 4.58789 7.5 5.625 7.5H11.25C12.2871 7.5 13.125 6.66211 13.125 5.625C13.125 4.58789 12.2871 3.75 11.25 3.75H5.625Z" fill="white"/>
</g>
<defs>
<clipPath id="clip0_302_2">
<rect width="30" height="30" fill="white"/>
</clipPath>
</defs>
</svg>
