<?xml version="1.0"?>
<svg xmlns="http://www.w3.org/2000/svg" xmlns:xlink="http://www.w3.org/1999/xlink" xmlns:svgjs="http://svgjs.com/svgjs" version="1.1" width="512" height="512" x="0" y="0" viewBox="0 0 24 24" style="enable-background:new 0 0 512 512" xml:space="preserve"><g><path xmlns="http://www.w3.org/2000/svg" d="M10.48,19a1,1,0,0,1-.7-.29L5.19,14.12a3,3,0,0,1,0-4.24L9.78,5.29a1,1,0,0,1,1.41,0,1,1,0,0,1,0,1.42L6.6,11.29a1,1,0,0,0,0,1.42l4.59,4.58a1,1,0,0,1,0,1.42A1,1,0,0,1,10.48,19Z" fill="#17202a" data-original="#000000"/><path xmlns="http://www.w3.org/2000/svg" d="M17.48,19a1,1,0,0,1-.7-.29l-6-6a1,1,0,0,1,0-1.42l6-6a1,1,0,0,1,1.41,0,1,1,0,0,1,0,1.42L12.9,12l5.29,5.29a1,1,0,0,1,0,1.42A1,1,0,0,1,17.48,19Z" fill="#17202a" data-original="#000000"/></g></svg>
