<svg width="40" height="40" viewBox="0 0 40 40" fill="none" xmlns="http://www.w3.org/2000/svg">
<g clip-path="url(#clip0_947_147)">
<path d="M39.2684 35.742L31.5265 27.9969C37.3194 20.2556 35.7399 9.2839 27.9986 3.49103C20.2573 -2.30184 9.28561 -0.722313 3.49274 7.01898C-2.30013 14.7603 -0.720604 25.7319 7.02069 31.5248C13.2391 36.1781 21.78 36.1781 27.9986 31.5248L35.7437 39.27C36.7171 40.2433 38.2951 40.2433 39.2683 39.27C40.2417 38.2967 40.2417 36.7186 39.2683 35.7454L39.2684 35.742ZM17.5742 30.0299C10.6941 30.0299 5.11672 24.4526 5.11672 17.5725C5.11672 10.6924 10.6941 5.11501 17.5742 5.11501C24.4543 5.11501 30.0316 10.6924 30.0316 17.5725C30.0243 24.4494 24.4512 30.0226 17.5742 30.0299Z" fill="#17202A"/>
</g>
<defs>
<clipPath id="clip0_947_147">
<rect width="40" height="40" fill="white"/>
</clipPath>
</defs>
</svg>
