<svg width="50" height="45" viewBox="0 0 50 45" fill="none" xmlns="http://www.w3.org/2000/svg">
<g clip-path="url(#clip0_552_30)">
<path d="M39.5833 7.5H31.25V5.625C31.25 4.13316 30.5915 2.70242 29.4194 1.64752C28.2473 0.592632 26.6576 0 25 0C23.3424 0 21.7527 0.592632 20.5806 1.64752C19.4085 2.70242 18.75 4.13316 18.75 5.625V7.5H10.4167C7.65501 7.50298 5.00741 8.49165 3.05462 10.2492C1.10184 12.0067 0.00330804 14.3895 0 16.875L0 35.625C0.00330804 38.1105 1.10184 40.4933 3.05462 42.2508C5.00741 44.0083 7.65501 44.997 10.4167 45H39.5833C42.345 44.997 44.9926 44.0083 46.9454 42.2508C48.8982 40.4933 49.9967 38.1105 50 35.625V16.875C49.9967 14.3895 48.8982 12.0067 46.9454 10.2492C44.9926 8.49165 42.345 7.50298 39.5833 7.5ZM20.8333 33.75C20.8333 34.2473 20.6138 34.7242 20.2231 35.0758C19.8324 35.4275 19.3025 35.625 18.75 35.625H8.33333C7.7808 35.625 7.25089 35.4275 6.86019 35.0758C6.46949 34.7242 6.25 34.2473 6.25 33.75V18.75C6.25 18.2527 6.46949 17.7758 6.86019 17.4242C7.25089 17.0725 7.7808 16.875 8.33333 16.875H18.75C19.3025 16.875 19.8324 17.0725 20.2231 17.4242C20.6138 17.7758 20.8333 18.2527 20.8333 18.75V33.75ZM25 11.25C24.4475 11.25 23.9176 11.0525 23.5269 10.7008C23.1362 10.3492 22.9167 9.87228 22.9167 9.375V5.625C22.9167 5.12772 23.1362 4.65081 23.5269 4.29917C23.9176 3.94754 24.4475 3.75 25 3.75C25.5525 3.75 26.0824 3.94754 26.4731 4.29917C26.8638 4.65081 27.0833 5.12772 27.0833 5.625V9.375C27.0833 9.87228 26.8638 10.3492 26.4731 10.7008C26.0824 11.0525 25.5525 11.25 25 11.25ZM37.5 35.625H29.1667C28.6141 35.625 28.0842 35.4275 27.6935 35.0758C27.3028 34.7242 27.0833 34.2473 27.0833 33.75C27.0833 33.2527 27.3028 32.7758 27.6935 32.4242C28.0842 32.0725 28.6141 31.875 29.1667 31.875H37.5C38.0525 31.875 38.5824 32.0725 38.9731 32.4242C39.3638 32.7758 39.5833 33.2527 39.5833 33.75C39.5833 34.2473 39.3638 34.7242 38.9731 35.0758C38.5824 35.4275 38.0525 35.625 37.5 35.625ZM41.6667 28.125H29.1667C28.6141 28.125 28.0842 27.9275 27.6935 27.5758C27.3028 27.2242 27.0833 26.7473 27.0833 26.25C27.0833 25.7527 27.3028 25.2758 27.6935 24.9242C28.0842 24.5725 28.6141 24.375 29.1667 24.375H41.6667C42.2192 24.375 42.7491 24.5725 43.1398 24.9242C43.5305 25.2758 43.75 25.7527 43.75 26.25C43.75 26.7473 43.5305 27.2242 43.1398 27.5758C42.7491 27.9275 42.2192 28.125 41.6667 28.125ZM41.6667 20.625H29.1667C28.6141 20.625 28.0842 20.4275 27.6935 20.0758C27.3028 19.7242 27.0833 19.2473 27.0833 18.75C27.0833 18.2527 27.3028 17.7758 27.6935 17.4242C28.0842 17.0725 28.6141 16.875 29.1667 16.875H41.6667C42.2192 16.875 42.7491 17.0725 43.1398 17.4242C43.5305 17.7758 43.75 18.2527 43.75 18.75C43.75 19.2473 43.5305 19.7242 43.1398 20.0758C42.7491 20.4275 42.2192 20.625 41.6667 20.625ZM10.4167 20.625H16.6667V31.875H10.4167V20.625Z" fill="#17202A" fill-opacity="0.5"/>
</g>
<defs>
<clipPath id="clip0_552_30">
<rect width="50" height="45" fill="white"/>
</clipPath>
</defs>
</svg>
