<svg width="45" height="45" viewBox="0 0 45 45" fill="none" xmlns="http://www.w3.org/2000/svg">
<g clip-path="url(#clip0_559_88)">
<path d="M43.1251 20.6254C42.6278 20.6254 42.1509 20.4278 41.7992 20.0762C41.4476 19.7246 41.2501 19.2477 41.2501 18.7504C41.2461 14.7733 39.6645 10.9603 36.8523 8.14815C34.0401 5.33597 30.2271 3.75434 26.2501 3.75037C25.7528 3.75037 25.2759 3.55283 24.9242 3.2012C24.5726 2.84956 24.3751 2.37265 24.3751 1.87537C24.3751 1.37809 24.5726 0.901175 24.9242 0.549545C25.2759 0.197914 25.7528 0.000369685 26.2501 0.000369685C31.2212 0.00582893 35.9872 1.98302 39.5023 5.49815C43.0174 9.01327 44.9946 13.7792 45.0001 18.7504C45.0001 19.2477 44.8025 19.7246 44.4509 20.0762C44.0993 20.4278 43.6223 20.6254 43.1251 20.6254ZM37.5001 18.7504C37.5001 15.7667 36.3148 12.9052 34.205 10.7954C32.0952 8.68563 29.2338 7.50037 26.2501 7.50037C25.7528 7.50037 25.2759 7.69791 24.9242 8.04955C24.5726 8.40118 24.3751 8.87809 24.3751 9.37537C24.3751 9.87265 24.5726 10.3496 24.9242 10.7012C25.2759 11.0528 25.7528 11.2504 26.2501 11.2504C28.2392 11.2504 30.1468 12.0405 31.5534 13.4471C32.9599 14.8536 33.7501 16.7612 33.7501 18.7504C33.7501 19.2477 33.9476 19.7246 34.2992 20.0762C34.6509 20.4278 35.1278 20.6254 35.6251 20.6254C36.1223 20.6254 36.5993 20.4278 36.9509 20.0762C37.3025 19.7246 37.5001 19.2477 37.5001 18.7504ZM41.5932 41.5579L43.2994 39.591C44.3855 38.5015 44.9953 37.0259 44.9953 35.4876C44.9953 33.9492 44.3855 32.4736 43.2994 31.3841C43.2413 31.326 38.7301 27.8554 38.7301 27.8554C37.6474 26.8247 36.2092 26.2509 34.7144 26.253C33.2196 26.255 31.783 26.833 30.7032 27.8666L27.1294 30.8779C24.2123 29.6705 21.5624 27.8988 19.3319 25.6645C17.1014 23.4301 15.3342 20.7771 14.1319 17.8579L17.1319 14.2954C18.1664 13.2157 18.745 11.7789 18.7474 10.2836C18.7499 8.78836 18.176 7.34967 17.1451 6.26662C17.1451 6.26662 13.6707 1.76099 13.6126 1.70287C12.5428 0.626148 11.0923 0.013536 9.57462 -0.0026026C8.05689 -0.0187412 6.59375 0.562889 5.50132 1.61662L3.34507 3.49162C-9.39368 18.2704 18.0376 45.4897 33.3038 45.0004C34.8454 45.0093 36.3732 44.7093 37.7969 44.118C39.2206 43.5268 40.5115 42.6562 41.5932 41.5579Z" fill="#17202A" fill-opacity="0.5"/>
</g>
<defs>
<clipPath id="clip0_559_88">
<rect width="45" height="45" fill="white"/>
</clipPath>
</defs>
</svg>
